Coordinates
version=1
nRows=7
nColumns=63
inDegrees=yes

Units are S.I. units (second, meters, Newtons, ...)
If the header above contains a line with 'inDegrees', this indicates whether rotational values are in degrees (yes) or radians (no).

endheader
time	pelvis_tilt	pelvis_list	pelvis_rotation	pelvis_tx	pelvis_ty	pelvis_tz	hip_flexion_r	hip_adduction_r	hip_rotation_r	knee_angle_r	knee_angle_r_beta	ankle_angle_r	subtalar_angle_r	mtp_angle_r	hip_flexion_l	hip_adduction_l	hip_rotation_l	knee_angle_l	knee_angle_l_beta	ankle_angle_l	subtalar_angle_l	mtp_angle_l	L5_S1_Flex_Ext	L5_S1_Lat_Bending	L5_S1_axial_rotation	L4_L5_Flex_Ext	L4_L5_Lat_Bending	L4_L5_axial_rotation	L3_L4_Flex_Ext	L3_L4_Lat_Bending	L3_L4_axial_rotation	L2_L3_Flex_Ext	L2_L3_Lat_Bending	L2_L3_axial_rotation	L1_L2_Flex_Ext	L1_L2_Lat_Bending	L1_L2_axial_rotation	L1_T12_Flex_Ext	L1_T12_Lat_Bending	L1_T12_axial_rotation	Abs_r3	Abs_r2	Abs_r1	Abs_t1	Abs_t2	neck_flexion	neck_bending	neck_rotation	arm_flex_r	arm_add_r	arm_rot_r	elbow_flex_r	pro_sup_r	wrist_flex_r	wrist_dev_r	arm_flex_l	arm_add_l	arm_rot_l	elbow_flex_l	pro_sup_l	wrist_flex_l	wrist_dev_l
      0.00000000	      7.29765106	    -12.52390900	    123.07235403	     -0.37938309	      0.89885306	      0.07784226	     33.12087137	    -21.45672267	    -69.88141778	     65.25652208	      1.13894117	      6.72795681	    -19.71991099	      0.00000000	     24.99086187	     17.69017021	     39.62938954	     37.38783233	      0.65254077	    -59.79151421	     19.67733421	      0.00000000	     -0.09644792	     -1.64570743	      5.25552767	     -0.17911344	     -2.18879088	      5.58399815	     -0.15845430	     -4.00137305	      5.58399815	     -0.11023033	     -4.00137305	      4.59858671	     -0.08956154	     -3.35592659	      4.27011623	     -0.05511034	     -2.54920081	      3.94164575	     -0.68891788	    -18.61657159	     29.22966825	      0.00000000	      0.00000000	     27.65849108	    -25.69160709	    -43.92792699	      7.32122333	     -2.69766536	    -75.71780468	     11.80333209	    -38.86559449	     19.37831292	      5.08539167	     17.24132407	    -31.71558145	    112.89004255	     20.40325839	     47.11519575	     19.37831292	      5.08539167
      0.03333333	      7.15098374	    -12.35323396	    123.62330135	     -0.38018375	      0.89974899	      0.07830771	     30.91175013	    -22.30698519	    -69.87740026	     62.31256635	      1.08755945	      2.20714589	    -19.71913403	      0.00000000	     25.67724434	     17.92969147	     39.59481945	     39.40407447	      0.68773084	    -59.78254981	     19.66301846	      0.00000000	     -0.10890894	     -1.70751679	      5.21602515	     -0.20225480	     -2.27099733	      5.54202673	     -0.17892651	     -4.15165632	      5.54202673	     -0.12447203	     -4.15165632	      4.56402201	     -0.10113285	     -3.48196823	      4.23802044	     -0.06223057	     -2.64494350	      3.91201887	     -0.77792570	    -19.31577140	     29.00996710	      0.00000000	      0.00000000	     27.64989667	    -25.63480069	    -43.92271530	      7.48114468	     -1.78861045	    -75.63117377	     12.00757006	    -38.85188623	     19.37950950	      5.08393422	     16.23541385	    -31.88428280	    113.25294346	     21.14508810	     47.26686931	     19.37950950	      5.08393422
      0.06666667	      8.50923357	    -10.86108082	    124.96042308	     -0.38271768	      0.90111324	      0.07953072	     27.33639434	    -20.79335621	    -69.87365242	     56.04205946	      0.97811846	     -6.13194084	    -19.73398741	      0.00000000	     26.25942102	     16.22509285	     39.57562326	     41.71208954	      0.72801330	    -59.77729824	     19.63467371	      0.00000000	     -0.07577086	     -1.51370378	      5.12301319	     -0.14071407	     -2.01322602	      5.44320151	     -0.12448395	     -3.68041936	      5.44320151	     -0.08659852	     -3.68041936	      4.48263654	     -0.07036082	     -3.08674474	      4.16244821	     -0.04329547	     -2.34472715	      3.84225989	     -0.54122369	    -17.12331985	     28.49266244	      0.00000000	      0.00000000	     27.61000904	    -25.12669646	    -43.88953343	      7.44881868	     -1.85948379	    -76.33469008	     12.16344806	    -37.92617835	     19.47206665	      5.01906783	     16.08904286	    -29.12415271	    127.51403196	     21.64517286	     54.53272386	     19.47206665	      5.01906783
      0.10000000	      9.73254251	     -9.62267837	    126.81576696	     -0.38547782	      0.90244517	      0.08050933	     23.14877319	    -18.39325227	    -69.86450685	     46.17742121	      0.80594804	    -17.23594245	    -19.74989108	      0.00000000	     26.94594622	     14.52153165	     39.57699874	     43.22007379	      0.75433259	    -59.77829066	     19.59961746	      0.00000000	     -0.04998151	     -1.35587309	      4.89634171	     -0.09282065	     -1.80331121	      5.20236307	     -0.08211462	     -3.29666984	      5.20236307	     -0.05712386	     -3.29666984	      4.28429899	     -0.04641283	     -2.76489641	      3.97827764	     -0.02855943	     -2.10024742	      3.67225628	     -0.35701289	    -15.33790761	     27.23198368	      0.00000000	      0.00000000	     27.58985439	    -25.01949505	    -43.88139510	      7.64944998	     -1.70893806	    -76.39774076	     12.34251182	    -37.80429723	     19.47676675	      5.01761959	     13.92866789	    -28.28857951	    128.02367035	     23.80254374	     54.57934302	     19.47676675	      5.01761959
      0.13333333	     11.13259747	     -8.26299790	    130.23217092	     -0.38927355	      0.90308865	      0.08156613	     18.08418834	    -14.13723189	    -69.83897311	     31.58410370	      0.55124660	    -33.38140701	    -19.76742296	      0.00000000	     27.98951853	     12.79109078	     39.61646945	     44.81395340	      0.78215104	    -59.78904286	     19.53071268	      0.00000000	     -0.01404853	     -1.17248514	      4.38606086	     -0.02608952	     -1.55940524	      4.66018966	     -0.02308032	     -2.85078038	      4.66018966	     -0.01605606	     -2.85078038	      3.83780325	     -0.01304546	     -2.39093170	      3.56367444	     -0.00802733	     -1.81617949	      3.28954564	     -0.10034722	    -13.26338643	     24.39395466	      0.00000000	      0.00000000	     27.55879712	    -25.52495162	    -43.86596475	      7.85035907	     -1.61173881	    -77.44049255	     12.39983250	    -36.83794080	     19.51323226	      5.00910334	     12.03673369	    -26.63522719	    133.52668615	     25.31516624	     55.91974428	     19.51323226	      5.00910334
      0.16666667	     11.34703909	     -8.42924602	    135.44959190	     -0.39326932	      0.90078174	      0.08269760	     12.98533682	    -11.09731738	    -69.77340609	     15.48873757	      0.27032947	    -52.63380397	    -19.77633017	      0.00000000	     29.99828733	     13.58784490	     39.67040658	     46.77112974	      0.81631021	    -59.80479212	     19.39781385	      0.00000000	      0.01568537	     -1.22046253	      3.51626649	      0.02912930	     -1.62321517	      3.73603315	      0.02576950	     -2.96743261	      3.73603315	      0.01792681	     -2.96743261	      3.07673318	      0.01456544	     -2.48876720	      2.85696652	      0.00896262	     -1.89049647	      2.63719987	      0.11203904	    -13.80611628	     19.55641934	      0.00000000	      0.00000000	     27.53349728	    -25.44360406	    -43.85458255	      7.94285279	     -0.51988633	    -77.58982258	     13.01831642	    -36.62815747	     19.51744685	      5.00842377	     10.93394532	    -27.92781591	    133.33635308	     30.93833378	     55.81153733	     19.51744685	      5.00842377
      0.20000000	      9.57067988	    -10.78528820	    138.77479155	     -0.39504285	      0.89544832	      0.08262757	      9.27897409	    -13.17919230	    -69.68295520	      7.45457556	      0.13010689	    -64.35919067	    -19.77554718	      0.00000000	     32.27443604	     17.52600139	     39.70640409	     49.27609814	      0.86003016	    -59.80999890	     19.27711159	      0.00000000	      0.00368293	     -1.59154333	      2.90400661	      0.00683957	     -2.11675263	      3.08550702	      0.00605068	     -3.86967845	      3.08550702	      0.00420922	     -3.86967845	      2.54100578	      0.00341997	     -3.24547516	      2.35950537	      0.00210443	     -2.46530062	      2.17800496	      0.02630679	    -18.00385645	     16.15121355	      0.00000000	      0.00000000	     27.51593909	    -25.71687612	    -43.84360676	      8.22449578	      1.47952314	    -77.80029852	     13.83327885	    -36.39302928	     19.52043542	      5.00796998	     10.64165152	    -31.17919522	    132.56418315	     38.50994064	     55.63210192	     19.52043542	      5.00796998
